<svg xmlns="http://www.w3.org/2000/svg" viewBox="0 0 32 32" fill="none">
  <defs>
    <linearGradient id="grad" x1="0%" y1="0%" x2="100%" y2="100%">
      <stop offset="0%" style="stop-color:#6366f1;stop-opacity:1" />
      <stop offset="100%" style="stop-color:#3b82f6;stop-opacity:1" />
    </linearGradient>
  </defs>
  <rect width="32" height="32" rx="6" fill="url(#grad)"/>
  <path d="M10 8h8a2 2 0 0 1 2 2v8a2 2 0 0 1-2 2h-8a2 2 0 0 1-2-2v-8a2 2 0 0 1 2-2z" fill="white" fill-opacity="0.9"/>
  <path d="M12 12h4v1h-4v-1zm0 2h6v1h-6v-1zm0 2h3v1h-3v-1z" fill="url(#grad)"/>
  <circle cx="24" cy="24" r="3" fill="white" fill-opacity="0.8"/>
  <path d="M22.5 24l1 1 2-2" stroke="url(#grad)" stroke-width="1.5" fill="none" stroke-linecap="round" stroke-linejoin="round"/>
</svg>